<svg width="90" height="90" viewBox="0 0 90 90" fill="none" xmlns="http://www.w3.org/2000/svg">
<g clip-path="url(#clip0_852_1543)">
<path d="M45 90C69.8528 90 90 69.8528 90 45C90 20.1472 69.8528 0 45 0C20.1472 0 0 20.1472 0 45C0 69.8528 20.1472 90 45 90Z" fill="#3A3A39"/>
<path d="M68.532 24.8842C62.852 18.245 54.4202 14.0337 44.9985 14.0337C27.8975 14.0337 14.0322 27.8976 14.0322 45C14.0322 54.6952 18.488 63.3445 25.4618 69.0223C30.7908 73.363 37.5891 75.9678 44.9985 75.9678C62.1024 75.9678 75.9663 62.1039 75.9663 45C75.9663 37.3185 73.1632 30.297 68.532 24.8842Z" fill="#EA6A25"/>
<path d="M59.2731 59.5133C68.996 49.789 72.1777 36.2172 68.532 24.8849C62.852 18.2457 54.4202 14.0344 44.9985 14.0344C27.8975 14.0344 14.0322 27.8983 14.0322 45.0007C14.0322 54.6959 18.488 63.3452 25.4618 69.0231C36.6235 72.2624 49.7833 69.0039 59.2731 59.5133Z" fill="#F37C2A"/>
<path d="M75.8597 47.4399C75.8974 46.9738 75.9236 46.5063 75.94 46.0338C74.1494 44.7193 71.2839 43.4972 67.9302 42.3937C68.2883 39.2994 68.2478 36.5098 67.9401 34.0173L73.4077 32.6517C73.2521 32.2921 73.0943 31.934 72.9245 31.5816L67.7774 32.8684C67.0214 28.2002 65.3446 24.6475 63.7388 22.1713C62.6815 20.5378 61.5809 19.2362 60.6067 18.2371C59.4649 17.57 58.2798 16.966 57.0513 16.4459L56.939 16.6264C56.9695 16.6456 60.0682 18.6123 62.8037 22.8506C64.3313 25.2224 65.93 28.6308 66.6463 33.1171C58.8858 34.2177 45.2636 21.9916 45.1321 21.8722C41.1894 18.1839 36.9695 16.5596 34.4308 15.8647C33.7977 16.0935 33.1774 16.3478 32.5657 16.6171C34.2965 16.9447 39.5836 18.2627 44.3505 22.722C44.9055 23.2244 57.2928 34.3484 65.643 34.3484C66.0416 34.3484 66.4274 34.3136 66.8061 34.261C67.0868 36.5816 67.1237 39.1708 66.8104 42.0349C55.9528 38.6514 40.9194 36.4729 39.9978 36.3422C24.1246 34.4593 17.2957 37.3305 14.5495 39.3562C14.4415 39.9389 14.3512 40.5272 14.2773 41.1198C15.6764 39.6127 21.4004 35.2984 39.8465 37.4854C40.071 37.5174 55.7837 39.7932 66.6761 43.1839L66.6718 43.235C66.669 43.2819 66.4764 46.6932 65.1968 51.3365C61.4665 49.6795 57.0463 50.999 56.5248 51.1674C54.8166 51.502 39.3846 57.258 37.6111 57.9217L37.5778 57.9345C29.9573 61.3237 20.5364 61.3791 18.7153 61.355C18.9597 61.7479 19.212 62.1351 19.4742 62.5138C22.4634 62.5039 30.8803 62.1699 38.0311 58.9988C45.0433 56.3763 55.8057 52.435 56.7493 52.2985L56.8495 52.2765C56.9006 52.2602 61.3677 50.8235 64.8735 52.4584C64.406 54.0102 63.824 55.6657 63.0858 57.3682C60.2948 63.8063 54.7456 72.0634 44.0308 75.9251C44.3527 75.935 44.6731 75.9499 44.9978 75.9499C45.7389 75.9499 46.4715 75.9137 47.199 75.864C56.4942 71.534 61.5134 63.8987 64.1466 57.8258C64.8642 56.1702 65.4355 54.5658 65.9023 53.0574C66.0899 53.191 66.2768 53.3253 66.453 53.4837C66.7308 53.797 70.2373 57.916 69.968 63.2954C70.3666 62.7526 70.7453 62.1934 71.1084 61.6242C70.702 56.4715 67.4463 52.8577 67.2864 52.6858L67.2474 52.6467C66.9283 52.3596 66.5894 52.1195 66.2455 51.8985C67.4349 47.6851 67.7412 44.4493 67.808 43.5455C71.4132 44.7335 74.369 46.0466 75.8597 47.4399Z" fill="#3A3A39"/>
</g>
<defs>
<clipPath id="clip0_852_1543">
<rect width="89.9993" height="90" fill="white"/>
</clipPath>
</defs>
</svg>
