<svg width="90" height="90" viewBox="0 0 90 90" fill="none" xmlns="http://www.w3.org/2000/svg">
<g clip-path="url(#clip0_852_1425)">
<path d="M45 90C69.8528 90 90 69.8528 90 45C90 20.1472 69.8528 0 45 0C20.1472 0 0 20.1472 0 45C0 69.8528 20.1472 90 45 90Z" fill="#8FB5B6"/>
<path d="M45 90C69.8528 90 90 69.8528 90 45C90 20.1472 69.8528 0 45 0C20.1472 0 0 20.1472 0 45C0 69.8528 20.1472 90 45 90Z" fill="#D9D9D9"/>
<path d="M21.8051 62.9928C21.8051 65.4868 19.7559 67.5075 17.2274 67.5075C14.6976 67.5075 12.6484 65.4868 12.6484 62.9928V52.9866C12.6484 50.4926 14.6976 48.4719 17.2274 48.4719C19.7559 48.4719 21.8051 50.4926 21.8051 52.9866V62.9928Z" fill="#5E5F5E"/>
<path d="M76.7484 62.9928C76.7484 65.4868 74.6993 67.5075 72.1708 67.5075C69.641 67.5075 67.5918 65.4868 67.5918 62.9928V52.9866C67.5918 50.4926 69.641 48.4719 72.1708 48.4719C74.6993 48.4719 76.7484 50.4926 76.7484 52.9866V62.9928Z" fill="#5E5F5E"/>
<path d="M70.682 38.392C67.7823 30.799 64.6158 20.7316 59.5476 20.7316C59.5476 20.7316 50.5076 20 45.0787 20C39.9617 20 30.5964 20.7316 30.5964 20.7316C25.1608 20.7316 22.1151 30.8562 19.3279 38.4486C15.1096 40.2464 11.1646 45.2988 12.1538 49.2035C13.1431 53.1082 17.4727 65.3106 24.0329 65.3106H66.1064C72.6672 65.3106 77.7395 52.132 77.9868 49.2035C78.2341 46.275 74.9717 40.1597 70.682 38.392Z" fill="#D32027"/>
<path d="M33.1048 23.4984C33.1048 23.4984 40.8435 22.8502 45.0699 22.8502C49.5562 22.8502 57.0263 23.4984 57.0263 23.4984C61.2773 23.4984 66.039 32.5278 68.6768 39.2472C69.938 42.4636 66.5696 55.2136 61.4593 55.2136H28.6818C23.5715 55.2136 20.1578 42.4564 21.375 39.2314C23.9115 32.5113 28.5591 23.4984 33.1048 23.4984Z" fill="#C82127"/>
<path d="M28.6818 55.2136C23.5715 55.2136 20.1578 42.4564 21.375 39.2314C21.375 39.2314 22.6236 45.3034 24.1988 48.4725C26.2626 52.6217 28.6818 55.2136 28.6818 55.2136Z" fill="#A81E22"/>
<path d="M61.3867 55.2136C66.4957 55.2136 69.9094 42.4564 68.6922 39.2314C68.6922 39.2314 67.4449 45.3034 65.8684 48.4725C63.8052 52.6217 61.3867 55.2136 61.3867 55.2136Z" fill="#A81E22"/>
<path d="M23.2911 53.1089C23.2911 54.9284 19.4441 55.1835 17.5989 55.1835C15.7524 55.1835 14.2578 53.7077 14.2578 51.8882C14.2578 50.0693 15.7524 48.5935 17.5989 48.5935C19.4441 48.5942 23.2911 51.29 23.2911 53.1089Z" fill="#C82127"/>
<path d="M22.4245 52.8742C22.4245 54.344 19.3154 54.5524 17.8235 54.5524C16.3316 54.5524 15.123 53.3586 15.123 51.8882C15.123 50.4177 16.3316 49.2252 17.8235 49.2252C19.3154 49.2252 22.4245 51.4043 22.4245 52.8742Z" fill="white"/>
<path d="M62.3122 60.3081C62.3122 62.1237 60.8203 63.5955 58.9791 63.5955H31.1612C29.32 63.5955 27.8281 62.1237 27.8281 60.3081C27.8281 58.4932 29.32 57.0214 31.1612 57.0214H58.9791C60.8203 57.0214 62.3122 58.4932 62.3122 60.3081Z" fill="#A81E22"/>
<path d="M66.9736 53.1089C66.9736 54.9284 70.82 55.1835 72.6659 55.1835C74.5111 55.1835 76.0069 53.7077 76.0069 51.8882C76.0069 50.0693 74.5111 48.5935 72.6659 48.5935C70.82 48.5942 66.9736 51.29 66.9736 53.1089Z" fill="#C82127"/>
<path d="M67.6436 52.9274C67.6436 54.4774 70.9206 54.6944 72.4919 54.6944C74.0644 54.6944 75.3383 53.4382 75.3383 51.8875C75.3383 50.3387 74.0651 49.0806 72.4919 49.0806C70.9206 49.0819 67.6436 51.3787 67.6436 52.9274Z" fill="white"/>
<path d="M18.4231 54.2467C19.6988 54.2467 20.7329 53.227 20.7329 51.969C20.7329 50.7111 19.6988 49.6913 18.4231 49.6913C17.1474 49.6913 16.1133 50.7111 16.1133 51.969C16.1133 53.227 17.1474 54.2467 18.4231 54.2467Z" fill="#F9F298"/>
<path d="M71.8821 54.2467C73.1578 54.2467 74.1919 53.227 74.1919 51.969C74.1919 50.7111 73.1578 49.6913 71.8821 49.6913C70.6064 49.6913 69.5723 50.7111 69.5723 51.969C69.5723 53.227 70.6064 54.2467 71.8821 54.2467Z" fill="#F9F298"/>
<path opacity="0.8" d="M31.4327 23.1132C31.4327 23.1132 40.2587 22.5156 45.0804 22.5156C50.1973 22.5156 58.7147 23.1132 58.7147 23.1132C63.563 23.1132 64.9175 30.4288 67.4147 36.6388C68.6099 39.6107 21.4821 39.6022 22.6341 36.6217C25.0359 30.4144 26.2518 23.1132 31.4327 23.1132Z" fill="#B1D4D7"/>
<path d="M31.4324 23.1132C31.4324 23.1132 40.2584 22.5156 45.08 22.5156C47.1618 22.5156 49.805 22.6142 52.2108 22.7326L39.7011 38.8068C30.2538 38.6083 22.1477 37.8806 22.633 36.6217C25.0355 30.4144 26.2514 23.1132 31.4324 23.1132Z" fill="#D3E0E1"/>
<path d="M56.5815 59.2005H33.2266C32.978 59.2005 32.7773 59.0026 32.7773 58.7581C32.7773 58.5129 32.978 58.3157 33.2266 58.3157H56.5815C56.8302 58.3157 57.0308 58.5129 57.0308 58.7581C57.0308 59.0033 56.8308 59.2005 56.5815 59.2005Z" fill="#8D191C"/>
<path d="M56.5815 60.7512H33.2266C32.978 60.7512 32.7773 60.5533 32.7773 60.3081C32.7773 60.0642 32.978 59.8657 33.2266 59.8657H56.5815C56.8302 59.8657 57.0308 60.0642 57.0308 60.3081C57.0308 60.5533 56.8308 60.7512 56.5815 60.7512Z" fill="#8D191C"/>
<path d="M56.5815 62.3006H33.2266C32.978 62.3006 32.7773 62.1034 32.7773 61.8582C32.7773 61.6143 32.978 61.4158 33.2266 61.4158H56.5815C56.8302 61.4158 57.0308 61.6143 57.0308 61.8582C57.0308 62.1034 56.8308 62.3006 56.5815 62.3006Z" fill="#8D191C"/>
<path d="M49.6297 51.0297C47.7758 51.3511 46.3346 52.8565 46.3346 52.8565V52.8545C46.3279 52.8565 46.3252 52.8611 46.3192 52.8643C45.8026 53.1503 45.1953 53.051 44.9613 52.6428C44.7294 52.2339 44.96 51.6706 45.4766 51.3847C47.2678 50.3907 49.6297 51.0297 49.6297 51.0297Z" fill="#F1E7A4"/>
<path d="M48.8816 51.9349C47.353 52.0479 46.0578 53.1503 46.0578 53.1503C46.0538 53.1523 46.0511 53.1549 46.0458 53.1562C45.6031 53.3469 45.1185 53.2193 44.9638 52.8683C44.8092 52.518 45.0418 52.0815 45.4845 51.8895C47.0197 51.2282 48.8816 51.9349 48.8816 51.9349Z" fill="#F1E7A4"/>
<path d="M47.9553 52.5758C46.8121 52.5246 45.7535 53.2279 45.7535 53.2279L45.7522 53.2259C45.7495 53.2266 45.7455 53.2279 45.7428 53.2286C45.3975 53.3305 45.0502 53.1931 44.9682 52.919C44.8849 52.6462 45.0982 52.3431 45.4435 52.2399C46.6401 51.8876 47.9553 52.5758 47.9553 52.5758Z" fill="#F1E7A4"/>
<path d="M40.2109 51.0297C42.0648 51.3511 43.506 52.8565 43.506 52.8565V52.8545C43.5114 52.8565 43.5154 52.8611 43.52 52.8643C44.0366 53.1503 44.6453 53.051 44.8779 52.6428C45.1112 52.2339 44.8806 51.6706 44.364 51.3847C42.5728 50.3907 40.2109 51.0297 40.2109 51.0297Z" fill="#F1E7A4"/>
<path d="M40.958 51.9349C42.4879 52.0479 43.7818 53.1503 43.7818 53.1503C43.7858 53.1523 43.7898 53.1549 43.7938 53.1562C44.2378 53.3469 44.7211 53.2193 44.877 52.8683C45.0317 52.518 44.7991 52.0815 44.3564 51.8895C42.8212 51.2282 40.958 51.9349 40.958 51.9349Z" fill="#F1E7A4"/>
<path d="M41.8857 52.5758C43.0277 52.5246 44.0862 53.2279 44.0862 53.2279L44.0876 53.2259C44.0902 53.2266 44.0942 53.2279 44.0982 53.2286C44.4435 53.3305 44.7895 53.1931 44.8715 52.919C44.9562 52.6462 44.7429 52.3431 44.3976 52.2399C43.2003 51.8876 41.8857 52.5758 41.8857 52.5758Z" fill="#F1E7A4"/>
<path d="M44.8146 53.6919C45.573 53.6919 46.1879 53.0857 46.1879 52.3378C46.1879 51.5899 45.573 50.9836 44.8146 50.9836C44.0562 50.9836 43.4414 51.5899 43.4414 52.3378C43.4414 53.0857 44.0562 53.6919 44.8146 53.6919Z" fill="#A69C60"/>
<path d="M44.8137 52.9794C45.173 52.9794 45.4643 52.6922 45.4643 52.3379C45.4643 51.9835 45.173 51.6963 44.8137 51.6963C44.4544 51.6963 44.1631 51.9835 44.1631 52.3379C44.1631 52.6922 44.4544 52.9794 44.8137 52.9794Z" fill="#FAF3D1"/>
</g>
<defs>
<clipPath id="clip0_852_1425">
<rect width="90.0007" height="90" fill="white"/>
</clipPath>
</defs>
</svg>
