<svg width="90" height="90" viewBox="0 0 90 90" fill="none" xmlns="http://www.w3.org/2000/svg">
<g clip-path="url(#clip0_956_1648)">
<path d="M45 90C69.8528 90 90 69.8528 90 45C90 20.1472 69.8528 0 45 0C20.1472 0 0 20.1472 0 45C0 69.8528 20.1472 90 45 90Z" fill="#5E9ABB"/>
<path d="M45 90C69.8528 90 90 69.8528 90 45C90 20.1472 69.8528 0 45 0C20.1472 0 0 20.1472 0 45C0 69.8528 20.1472 90 45 90Z" fill="#3A3A39"/>
<path d="M72.3564 53.7565C72.3564 56.1112 67.4282 58.0197 65.0735 58.0197L50.1523 57.9543V35.395C50.1523 33.0403 52.4175 31.1318 54.7708 31.1318H65.0735C67.4282 31.1318 69.3367 33.0403 69.3367 35.395L72.3564 53.7565Z" fill="#E84849"/>
<path d="M67.5605 43.1433L53.3193 43.0936V35.9286C53.3193 34.1011 54.0107 33.6108 55.8367 33.6108H64.1855C66.013 33.6108 66.4947 34.3299 66.6389 35.9286L67.5605 43.1433Z" fill="#9DDAEC"/>
<path d="M50.6853 58.0197H19.817C16.852 58.0197 14.4482 55.616 14.4482 52.6517V30.8156C14.4482 27.8513 16.852 26.8687 19.817 26.8687H45.3172C48.2816 26.8687 50.6853 27.8513 50.6853 30.8156V58.0197Z" fill="#D5D6D5"/>
<path d="M50.6853 58.0197H19.817C16.852 58.0197 14.4482 55.616 14.4482 52.6517V32.1387C14.4482 29.1743 50.6853 29.1743 50.6853 32.1387V58.0197Z" fill="#CECBCB"/>
<path d="M75.5542 54.8628C75.5542 56.6058 74.1402 58.0197 72.3973 58.0197H57.3966C55.6522 58.0197 54.2383 56.6058 54.2383 54.8628V46.409C54.2383 44.666 55.6522 43.2521 57.3966 43.2521H72.3966C74.1395 43.2521 75.5535 44.666 75.5535 46.409V54.8628H75.5542Z" fill="#E84849"/>
<path d="M78.3961 57.4207C78.3961 58.3409 77.6508 59.0862 76.7306 59.0862H14.6935C13.7734 59.0862 13.0273 58.3409 13.0273 57.4207V55.3183C13.0273 54.3981 13.7734 53.6514 14.6935 53.6514H76.7306C77.6508 53.6514 78.3961 54.3981 78.3961 55.3183V57.4207Z" fill="#CECBCB"/>
<path d="M70.5881 57.4206C70.5881 58.3408 69.8413 59.0861 68.9212 59.0861H14.6935C13.7734 59.0861 13.0273 58.3408 13.0273 57.4206V54.9771C13.0273 54.057 13.7734 53.3116 14.6935 53.3116H68.9219C69.842 53.3116 70.5888 54.057 70.5888 54.9771V57.4206H70.5881Z" fill="#E84849"/>
<path d="M63.0489 68.1817C66.9122 68.1817 70.0441 65.0499 70.0441 61.1866C70.0441 57.3233 66.9122 54.1914 63.0489 54.1914C59.1856 54.1914 56.0537 57.3233 56.0537 61.1866C56.0537 65.0499 59.1856 68.1817 63.0489 68.1817Z" fill="#202121"/>
<path d="M63.0486 65.3474C65.3465 65.3474 67.2094 63.4845 67.2094 61.1865C67.2094 58.8885 65.3465 57.0256 63.0486 57.0256C60.7506 57.0256 58.8877 58.8885 58.8877 61.1865C58.8877 63.4845 60.7506 65.3474 63.0486 65.3474Z" fill="#5E5F5E"/>
<path d="M63.0495 62.7405C63.9085 62.7405 64.6048 62.0441 64.6048 61.1851C64.6048 60.3261 63.9085 59.6298 63.0495 59.6298C62.1905 59.6298 61.4941 60.3261 61.4941 61.1851C61.4941 62.0441 62.1905 62.7405 63.0495 62.7405Z" fill="#A19F9F"/>
<path d="M29.6553 68.1816C33.5187 68.1816 36.6505 65.0498 36.6505 61.1865C36.6505 57.3231 33.5187 54.1913 29.6553 54.1913C25.792 54.1913 22.6602 57.3231 22.6602 61.1865C22.6602 65.0498 25.792 68.1816 29.6553 68.1816Z" fill="#202121"/>
<path d="M33.8159 61.1865C33.8159 63.4829 31.9536 65.3459 29.6557 65.3459C27.3579 65.3459 25.4941 63.4836 25.4941 61.1865C25.4941 58.8872 27.3579 57.0249 29.6557 57.0249C31.9536 57.0249 33.8159 58.8872 33.8159 61.1865Z" fill="#5E5F5E"/>
<path d="M29.6559 62.7405C30.5149 62.7405 31.2113 62.0441 31.2113 61.1851C31.2113 60.3261 30.5149 59.6298 29.6559 59.6298C28.7969 59.6298 28.1006 60.3261 28.1006 61.1851C28.1006 62.0441 28.7969 62.7405 29.6559 62.7405Z" fill="#A19F9F"/>
<path d="M62.942 56.1808C65.3472 56.1808 68.2291 57.5933 69.4867 59.6709L73.4046 59.6695C72.0986 54.8876 67.9129 51.3833 62.942 51.3833C57.9712 51.3833 53.7854 54.8876 52.4795 59.6695L56.3959 59.6709C57.6543 57.594 60.5355 56.1808 62.942 56.1808Z" fill="#E13B3B"/>
<path d="M29.7848 56.1808C32.19 56.1808 34.8587 57.5933 36.0659 59.6695H40.2474C38.9414 54.8876 34.7557 51.3833 29.7848 51.3833C24.814 51.3833 20.6282 54.8876 19.3223 59.6695L23.5037 59.6709C24.7095 57.594 27.3783 56.1808 29.7848 56.1808Z" fill="#E13B3B"/>
</g>
<defs>
<clipPath id="clip0_956_1648">
<rect width="90" height="90" fill="white"/>
</clipPath>
</defs>
</svg>
